/* XPM */
static char *result[] = {
/* columns rows colors chars-per-pixel */
"32 32 43 1 ",
"  c #8D5BA6",
". c #8E5CA6",
"X c #8F5CA6",
"o c #8F5DA7",
"O c #8F5DA8",
"+ c #905EA9",
"@ c #905FAC",
"# c #9263B5",
"$ c #9363B5",
"% c #9364B6",
"& c #9566BA",
"* c #9969BA",
"= c #A26EB9",
"- c #A671B8",
"; c #9E70C8",
": c #9B71D2",
"> c #9C72D2",
", c #A17AE0",
"< c #A17AE1",
"1 c #AE82E0",
"2 c #B085E5",
"3 c #B185E5",
"4 c #A381F3",
"5 c #A582F3",
"6 c #A683F4",
"7 c #A884F4",
"8 c #AD87F5",
"9 c #B68CF1",
"0 c #B78DF1",
"q c #B58CF3",
"w c #B78EF2",
"e c #B58DF4",
"r c #C892DD",
"t c #D69BDB",
"y c #CF9BEC",
"u c #D19DEF",
"i c #C194F2",
"p c #C295F3",
"a c #D09DF0",
"s c #DCA5EF",
"d c #D3A0F1",
"f c #D4A0F0",
"g c None",
/* pixels */
"gggggggggggggggggggggggggggggggg",
"gggggggggggggggggggggggggggggggg",
"gggggggggggggggggggggggggggggggg",
"gggggggggggggggggggggggggggggggg",
"gggggggggggggggggggggggggggggggg",
"gggggggggggggggggggggggggggggggg",
"gggggggggggggggggggggggggggggggg",
"gggggggggggggggggggggggggggggggg",
"gggggggggggggggggggggggggggggggg",
"gggggggggggggggggggggggggggggggg",
"gggggggggggggggggggggggggggggggg",
"gggggggggggggggggggggggggggggggg",
"ggggggggggggX&,765gggggggggggggg",
"ggggggggggggX&<8q0gggggggggggggg",
"ggggggggggggX&<eau94gggggggggggg",
"ggggggggggggo%>3yfiwgggggggggggg",
"ggggggggggggO@$;2pdsgggggggggggg",
"gggggggggggg+oX#:1rtgggggggggggg",
"ggggggggggggggo@$*=-gggggggggggg",
"gggggggggggggg+Oo.  gggggggggggg",
"gggggggggggggggggggggggggggggggg",
"gggggggggggggggggggggggggggggggg",
"gggggggggggggggggggggggggggggggg",
"gggggggggggggggggggggggggggggggg",
"gggggggggggggggggggggggggggggggg",
"gggggggggggggggggggggggggggggggg",
"gggggggggggggggggggggggggggggggg",
"gggggggggggggggggggggggggggggggg",
"gggggggggggggggggggggggggggggggg",
"gggggggggggggggggggggggggggggggg",
"gggggggggggggggggggggggggggggggg",
"gggggggggggggggggggggggggggggggg"
};
