/* XPM */
static char *d4da8b46d4af4923899420afa028ffb4h6hhGCzLhBNyKnU9[] = {
/* columns rows colors chars-per-pixel */
"32 32 9 1 ",
"  c None",
". c #270303",
"X c #761714",
"o c #6F1928",
"O c #4F202B",
"+ c #C12C27",
"@ c #9C3143",
"# c #CE4768",
"$ c #FDBEBC",
/* pixels */
"                                ",
"                                ",
"                                ",
"                                ",
"                                ",
"        ................        ",
"       .OOOOOOOOOOOOOOOO.       ",
"      .O##OOXX@@##X@$$##O.      ",
"     .O##OOXX##@@##X@$$##O.     ",
"    .O##OOXX@@##@@##X@$$##O.    ",
"   .OXXXXXX@@XXXXXX##+++++#O.   ",
"  .$OOXX@@@XX@@@##@++$$#$$++O.  ",
"  .$OXXXX@@@@@@@@##@$$#$$##+O.  ",
"  .$OOXXXX@XX@@@@@#XX#$$##++O.  ",
"  .$O####XXXXXXXXXXXX+++++#+O.  ",
"   .$OOOOOOooXXXXX@@X+####+O.   ",
"    .$XOOOOoooXXXX@@X+###+O.    ",
"     .$XOOOOoooX@@XX+##++O.     ",
"      .$@OOOXooX@@XX++++O.      ",
"       .$XOOOXooXXX+##+O.       ",
"        .$@OOXoooXX+#+O.        ",
"         .$XOOXo@@+++O.         ",
"          .$XOoX@@+#O.          ",
"           .$oooX+#O.           ",
"            .$ooo+O.            ",
"             .$ooO.             ",
"              .$O.              ",
"               ..               ",
"                                ",
"                                ",
"                                ",
"                                "
};
