/* XPM */
static char *_e4ef52684154c2fcf5dd000fbb7d46boBrCwteLyrwm3HpY[] = {
/* columns rows colors chars-per-pixel */
"32 32 228 2 ",
"   c #775A4A",
".  c #755847",
"X  c #785B47",
"o  c #7B5F4A",
"O  c #7C5F4A",
"+  c #7A5D49",
"@  c #775B49",
"#  c #765949",
"$  c #775A49",
"%  c #775948",
"&  c #785A4A",
"*  c #765A4A",
"=  c #765848",
"-  c #775A48",
";  c #795C49",
":  c #785B49",
">  c #765948",
",  c #755849",
"<  c #76594A",
"1  c #745745",
"2  c #795C48",
"3  c #7E604D",
"4  c #7F614E",
"5  c #7E604E",
"6  c #7D604B",
"7  c #7B5E49",
"8  c #765847",
"9  c #745645",
"0  c #755748",
"q  c #735646",
"w  c #7F624D",
"e  c #80624E",
"r  c #7D5F4C",
"t  c #7C5E4A",
"y  c #7D5F4B",
"u  c #7E614C",
"i  c #7D604C",
"p  c #7E624D",
"a  c #775946",
"s  c #765849",
"d  c #755848",
"f  c #745643",
"g  c #7D5F4E",
"h  c #795C4C",
"j  c #795B4A",
"k  c #795B4B",
"l  c #7B5D4C",
"z  c #7D5F4D",
"x  c #7E614D",
"c  c #7D614C",
"v  c #7A5E4A",
"b  c #745746",
"n  c #725442",
"m  c #7A5C4C",
"M  c #7A5C4B",
"N  c #7C5E4D",
"B  c #7A5D4C",
"V  c #785B4A",
"C  c #7E604F",
"Z  c #7B5D48",
"A  c #725543",
"S  c #755948",
"D  c #755846",
"F  c #735645",
"G  c #735544",
"H  c #765A47",
"J  c #765946",
"K  c #785A49",
"L  c #715341",
"P  c #755746",
"I  c #795C4B",
"U  c #7C5E4E",
"Y  c #785A48",
"T  c #745747",
"R  c #715444",
"E  c #725544",
"W  c #725545",
"Q  c #7C5D4A",
"!  c #715544",
"~  c #7A5B4A",
"^  c #715443",
"/  c #735747",
"(  c #745847",
")  c #755949",
"_  c #6F5241",
"`  c #775949",
"'  c #715545",
"]  c #735746",
"[  c #725647",
"{  c #775947",
"}  c #7B5C4A",
"|  c #7B5D49",
" . c #755747",
".. c #7B5E4A",
"X. c #765A49",
"o. c #7E604C",
"O. c #755641",
"+. c #785C49",
"@. c #7B5E4B",
"#. c #7C5F4C",
"$. c #7B5E4C",
"%. c #785B4B",
"&. c #755645",
"*. c #70523F",
"=. c #725342",
"-. c #785B48",
";. c #7C604A",
":. c #81644E",
">. c #81634E",
",. c #80624D",
"<. c #715442",
"1. c #715342",
"2. c #7B5D4B",
"3. c #80624F",
"4. c #7D604D",
"5. c #7B5C4B",
"6. c #7D5E4E",
"7. c #816351",
"8. c #7F614C",
"9. c #795B49",
"0. c #775B47",
"q. c #7D614B",
"w. c #7F604F",
"e. c #7B5C4C",
"r. c #7C5D4B",
"t. c #7C5D4C",
"y. c #80634E",
"u. c #755744",
"i. c #745646",
"p. c #765846",
"a. c #745848",
"s. c #6F5243",
"d. c #7F624E",
"f. c #7A5C49",
"g. c #7C5F4B",
"h. c #81634D",
"j. c #886853",
"k. c #82624D",
"l. c #765845",
"z. c #745541",
"x. c #735647",
"c. c #7B5E48",
"v. c #7F6150",
"b. c #7B5D4D",
"n. c #795A46",
"m. c #846550",
"M. c #876752",
"N. c #866752",
"B. c #84644F",
"V. c #81604D",
"C. c #815F4D",
"Z. c #82624E",
"A. c #725441",
"S. c #7C5E4B",
"D. c #725341",
"F. c #775A4B",
"G. c #795C47",
"H. c #735543",
"J. c #846450",
"K. c #866553",
"L. c #81604F",
"P. c #7E5E4C",
"I. c #805F4D",
"U. c #81604E",
"Y. c #7D5D4B",
"T. c #81614E",
"R. c #775944",
"E. c #7B5E47",
"W. c #7A5E49",
"Q. c #876654",
"!. c #80604F",
"~. c #7E5F4E",
"^. c #81614F",
"/. c #846452",
"(. c #856452",
"). c #7B5D4A",
"_. c #816150",
"`. c #7F5F4E",
"'. c #7D5E4D",
"]. c #826251",
"[. c #846352",
"{. c #80604E",
"}. c #705241",
"|. c #725443",
" X c #775A47",
".X c #7F604E",
"XX c #816250",
"oX c #836351",
"OX c #7E5E4D",
"+X c #705442",
"@X c #7B5E4D",
"#X c #775B4B",
"$X c #725645",
"%X c #705342",
"&X c #735443",
"*X c #71523E",
"=X c #795C45",
"-X c #705343",
";X c #7B5C49",
":X c #725440",
">X c #7E624C",
",X c #725646",
"<X c #6E503F",
"1X c #795A48",
"2X c #735442",
"3X c #7A5D46",
"4X c #6E5141",
"5X c #725546",
"6X c #7A5D48",
"7X c #775A46",
"8X c #795B48",
"9X c #735644",
"0X c #7A5D4A",
"qX c #775B48",
"wX c #715445",
"eX c #705444",
"rX c #77594A",
"tX c #755644",
"yX c #765743",
"uX c #7E624E",
"iX c #7A5F4B",
"pX c #745748",
"aX c #7F634D",
"sX c #755845",
"dX c #7F5F4C",
"fX c #6D5141",
"gX c #6F5342",
"hX c white",
/* pixels */
"    . X o O + @ # # # #     $   # % & * = - ; + ; : > > # , <   ",
"  1 2 3 4 5 3 6 7 + : 8 9 0 * $   q # 9 X w e r t y u i i p a s ",
"d f g h     j k l z 3 x c v b # #   d n a m M N j & k B V C Z 9 ",
"# A . $ S > # > D F G F H J A   b K   b L D . P 8 V I   V U Y A ",
"  T R E E E F E E F W Q 8 ! d   # G ~ , b ^ ^ ^ ^ ^ F d & $ ^ T ",
"# K Q d # d / ( )   q _ ` # > #   ' T # # d d #   = F E E E ]   ",
"  R W # # # # # , , d [ < #   < #   # # # # # , { } ) # d d #   ",
"`     # , d - ; + | i +  .  , @ ... # S #   <   W / X.  # j & # ",
"  # > - + 6 u o.o.4 o.O.n   Y b b .   # # d - +.$ #     # E d # ",
"= J @.#.$.B %.& j &.*.=.d T E ) d # = -.; ;.:.>.,.7 D <   # # $ ",
"G - h     $ 9 A <.1.b . 2.2.# # d 2 u 3.3.4.5.~ 6.7.8.J #   $   ",
"b F E F F E E q T # # F G 9.d 0.q.e w.6.k e.r.Q Q t.5 y.u.= < # ",
"i.p.d T / a.d ) # # T . s.D q.d.z Y f.g.x ,.h.j.k.l.5 4 z.T I t.",
"T x., # # ) # # ) ) d   &.c.v.b.= n.m.M.N.B.V.C.Z.A.N S.D.F.R P ",
"F.8 G.. * # d # V     . H.o U b.l.J.K.L.P.I.U.Y.T.u.j #.a # d d ",
"i.R.E.=.F.#   # P   # # G W.B % Q Q.!.~.^./.(.Q.Y.n k N ).9     ",
"G u.; .   # . . E # ` # 1 @.B 9 L._.`.'.].[.{.{ }.F l g 9.|.    ",
"b G $ b   = #   #   # T  XI I E .XXX_.oXOX8 +X^ > @XB > <.F   # ",
"T E E b #X> . ) )   # q > %.m b P `.5.b ^ $X> j b.> ^ %XF X.# 9 ",
"d $Xb   9 &Xa.} M # # T F h   %.$X! ' ]   %.%.V > ^ F # & # . > ",
"* # <  .*X=X9 -X>   ) # E b V I I   %.B $ T . b E  .F.T ;X$ # P ",
"  # l 9.:X>X. < #   # d d W F T d # # d W W W q d   # ,XW   T # ",
"  # <X1X2X3XD   #     # # # T ] ,X$X$X,XT # # d , S )   * ` I < ",
"#   4X5X9 6Xl.s d #       V ) ) # # # # < # d l M , # d < T  .  ",
". *   %.A M + i.#X> . * = } # # # # # , ) # T <.9.T 7Xw 8Xd #   ",
". * ) < 9X% 0XqX0   # # wXeX  rX  # # j # d d eXx.tX2.4.yX9   # ",
"S # # # F V %.uXiX$   #     #   # # pX|.# #   %.. H.> A 1.#   # ",
"# # # d F I I : v H T     # #   #   ` # I : # # d W E W d   #   ",
") # # # F b F W W W d d d j r.#   b p.2.4.aXf # d d a.) #     * ",
"  ) #   d q T # # # # .   E b     b F q q b b     # S # ` u sX< ",
"P > )     # # # ) ` dX    # # # d   # # # # < #   #   # F 9Xb   ",
"T #   # # # # #   fXgX  #       ) d # # #   # #   * #   # #   # "
};
