/* XPM */
static char *e6e98361467b460d9d337b80d5e9dc51iUEI0J5ymuYzUZxr[] = {
/* columns rows colors chars-per-pixel */
"32 32 124 2 ",
"   c None",
".  c #2E2D2C",
"X  c #302F2E",
"o  c #31302F",
"O  c #333231",
"+  c #41403F",
"@  c #464443",
"#  c #484745",
"$  c #4A4947",
"%  c #4D4C4A",
"&  c #504F4D",
"*  c #52514F",
"=  c #575452",
"-  c #595654",
";  c #5E5956",
":  c #5E5C5A",
">  c #615E5B",
",  c #63605E",
"<  c #656362",
"1  c #696664",
"2  c #6B6967",
"3  c #6F6F6E",
"4  c #6F6F6F",
"5  c #6F6E6E",
"6  c #6E6D6C",
"7  c #6C6B6A",
"8  c #706E6C",
"9  c #706E6D",
"0  c #706F6D",
"q  c #716F6D",
"w  c #706F6E",
"e  c #716F6E",
"r  c #706F6F",
"t  c #706F6F",
"y  c #71706E",
"u  c #70706F",
"i  c #71706F",
"p  c #72706F",
"a  c gray44",
"s  c #717070",
"d  c #717170",
"f  c #717171",
"g  c #737170",
"h  c #727171",
"j  c #727271",
"k  c #727172",
"l  c #737272",
"z  c gray45",
"x  c #747271",
"c  c #747371",
"v  c #747372",
"b  c #747373",
"n  c #757472",
"m  c #747473",
"M  c #757473",
"N  c #767473",
"B  c #767573",
"V  c #747474",
"C  c #757474",
"Z  c #767474",
"A  c #767574",
"S  c #767575",
"D  c #777675",
"F  c #777776",
"G  c #777777",
"H  c #747373",
"J  c #787676",
"K  c #787776",
"L  c #797776",
"P  c #787777",
"I  c #797777",
"U  c #787776",
"Y  c #797876",
"T  c #787877",
"R  c #7A7877",
"E  c #7A7977",
"W  c gray47",
"Q  c #797878",
"!  c #797978",
"~  c #797979",
"^  c #7A7978",
"/  c #7A7979",
"(  c #7B7A79",
")  c gray48",
"_  c #7B7A7A",
"`  c #7C7B7A",
"'  c #7D7C7B",
"]  c #7F7E7D",
"[  c #7A7979",
"{  c #807F7E",
"}  c #807F7F",
"|  c #828180",
" . c #838180",
".. c #828281",
"X. c #838281",
"o. c #898888",
"O. c #8B8A8A",
"+. c #8C8B8A",
"@. c #8D8C8B",
"#. c #8F8E8E",
"$. c #8F8F8E",
"%. c #929291",
"&. c #939292",
"*. c #959493",
"=. c #959494",
"-. c #969594",
";. c #969595",
":. c #979696",
">. c #999998",
",. c #9A9999",
"<. c #9F9E9E",
"1. c #9F9F9E",
"2. c #A09F9F",
"3. c #A1A0A0",
"4. c #A8A8A7",
"5. c #A9A9A8",
"6. c #A9A9A9",
"7. c #AAA9A9",
"8. c #AAAAAA",
"9. c #ABAAAA",
"0. c #B1B1B1",
"q. c #B2B2B2",
"w. c gray70",
"e. c #B4B4B3",
/* pixels */
"                  . @ $ # $ # $ $ $ @ @ @ @ .                   ",
"                @ , 2 6 1 2 2 2 2 2 7 7 6 1 > +                 ",
"              @ 1 2 < 1 1 < 1 2 1 1 1 < < < 2 1 @               ",
"            # 1 1 < : < < < = - - - > < < : < 2 < +             ",
"          # 1 2 , > 6 8 N 6 , < 1 > 6 Z 4 7 : > > > @           ",
"        # 1 2 < > 1 , 6 E ~ 6 S S 6 W W 4 < 7 ; > , 1 +         ",
"      # 1 2 < > 6 7 > 1 1 a 6 h a 4 a 2 a 6 Z a > , 7 1 @       ",
"    @ 1 7 < : < y N c 7 G X.o.$.#.o.X.S 6 W W 8 , > < 2 < @     ",
"  @ 1 7 < < 6 8 6 ~ h } ;.3.9.e.e.5.2.;.~ 6 ~ 2 8 8 > < 2 1 +   ",
"X < 2 , : 6 S ~ ~ a E @.;.1.5.q.q.4.<.;.@.S 6 ~ R B 6 > 1 6 > . ",
"@ 2 < : 7 < 7 ~ 8 b X.@.;.1.5.q.q.4.<.*.@.X.y 6 R 6 1 2 : < 1 @ ",
"$ 2 < < h 4 4 7 6 E X.@.;.1.5.q.q.4.<.*.o.X.E 2 7 6 6 6 < < 6 @ ",
"# 2 , 1 L L 7 < 8 ~ X.@.;.2.5.q.0.4.<.&.@.X.L 8 < 2 ~ L < < 2 @ ",
"+ > > > 8 R V 1 8 E X.@.;.<.5.q.0.4.<.*.o.X.L 6 < 6 ~ 6 < < 2 @ ",
"# > > = < 6 b 1 8 E X.@.;.<.5.q.q.4.<.*.@.X.~ 6 < 7 6 , - 2 2 @ ",
"$ 7 1 ; 1 Z h 2 y E X.@.;.<.5.q.0.4.<.*.o.X.L 4 < 7 S 1 - 2 2 @ ",
"% 2 < - 2 z z 2 8 E X.@.;.1.5.q.0.4.<.&.@.} E 8 < 7 N 1 = 2 2 @ ",
"% 2 1 = < 6 a 2 8 ~ X.@.;.1.5.q.0.4.<.*.@.} Y 8 , , 6 , = 2 2 $ ",
"% 1 < < 6 W z 1 y ~ X.@.;.1.5.q.q.4.<.*.@.} E 8 < 3 G 6 , 1 2 $ ",
"% 2 < < S ~ 4 < 8 E X.@.;.1.5.q.0.4.<.*.@.} L 6 , 7 ~ G 1 1 7 $ ",
"% 2 < < h 6 6 2 8 ~ X.@.;.<.5.q.0.4.<.*.@.} E 6 2 6 y y 1 1 2 $ ",
"$ 2 < : 6 1 6 ~ 8 S X.@.;.<.5.q.0.4.<.*.@.X.y 6 S 6 2 6 : < 2 # ",
"O < 6 < > 6 S ` ~ 8 ` @.;.2.5.q.0.4.<.*.@.E 6 G ~ h 7 : < 6 , . ",
"  % 1 2 < > b 8 6 ` b X.:.3.5.w.q.5.2.*.] 6 N 2 6 6 ; > 1 < @   ",
"    % 1 7 > > > 2 S b 6 } @.&.>.>.&.O.' 6 ~ ~ 8 , , , 7 1 #     ",
"      % < 1 > > 8 b 2 8 6 Z Z Z h z z 6 6 6 L y > < 7 1 #       ",
"        & 1 7 < < 2 1 y ~ ~ 6 S z 6 ) ~ 6 < 6 , < 7 1 $         ",
"          $ 1 7 < > 6 y S 6 < 2 2 < 8 S a 2 , < 7 1 #           ",
"            % 1 7 , > 1 > > = = - - < 1 < : < 2 1 #             ",
"              % 2 2 , 1 > > > > : > , < < < 2 2 #               ",
"                & , 7 2 2 2 7 1 7 1 7 1 2 2 < #                 ",
"                  o # & * * & % % & & & # @ X                   "
};
