/* XPM */
static char *f62f672158bb46768c3966c4cc951179RJYM7AwjgOf9Yf0e[] = {
/* columns rows colors chars-per-pixel */
"32 32 227 2 ",
"   c None",
".  c #102837",
"X  c #112838",
"o  c #112939",
"O  c #112A3A",
"+  c #122C3D",
"@  c #132D3E",
"#  c #272D2C",
"$  c #282D2C",
"%  c #28302F",
"&  c #293231",
"*  c #2B3231",
"=  c #2B3332",
"-  c #2C3534",
";  c #2E3838",
":  c #132E40",
">  c #132E41",
",  c #193D5A",
"<  c #1D3F5A",
"1  c #1D3F5B",
"2  c #1A3E5C",
"3  c #1A3F5C",
"4  c #1B405D",
"5  c #1F425F",
"6  c #1B4061",
"7  c #1C4261",
"8  c #1E4360",
"9  c #1F4360",
"0  c #1E4361",
"q  c #1D4563",
"w  c #1D4665",
"e  c #1D4666",
"r  c #1E4768",
"t  c #1F486A",
"y  c #1F496D",
"u  c #204663",
"i  c #204763",
"p  c #204766",
"a  c #204767",
"s  c #214864",
"d  c #234B65",
"f  c #27536E",
"g  c #28546F",
"h  c #265170",
"j  c #285471",
"k  c #4A6665",
"l  c #4B6867",
"z  c #4C6B6B",
"x  c #4D6E6E",
"c  c #2E739B",
"v  c #2E749D",
"b  c #2F769E",
"n  c #3E7490",
"m  c #3C7492",
"M  c #3E7592",
"N  c #3E7A9B",
"B  c #3F7B9C",
"V  c #3078A2",
"C  c #307AA3",
"Z  c #317AA3",
"A  c #317BA4",
"S  c #407A96",
"D  c #407C9B",
"F  c #417F9E",
"G  c #3A90BA",
"H  c #3B92BB",
"J  c #3C92BD",
"K  c #3C94BD",
"L  c #3D94BF",
"P  c #3D96BE",
"I  c #559DAB",
"U  c #569EAC",
"Y  c #569FAD",
"T  c #56A1B0",
"R  c #57A4B2",
"E  c #58A4B1",
"W  c #58A5B4",
"Q  c #58A6B5",
"!  c #6BA2BD",
"~  c #3E96C0",
"^  c #3E98C0",
"/  c #4299CD",
"(  c #449BCE",
")  c #449CCE",
"_  c #459ED0",
"`  c #57ACCC",
"'  c #57ACCD",
"]  c #58ACCC",
"[  c #58ADCC",
"{  c #59ADCC",
"}  c #5AAFCD",
"|  c #4DB4C6",
" . c #4EB5C6",
".. c #4EB6C6",
"X. c #4EB6C7",
"o. c #4FB7C7",
"O. c #4FB7C8",
"+. c #50B8C8",
"@. c #5FBBCE",
"#. c #46A0D1",
"$. c #4AAFD1",
"%. c #4BAFD3",
"&. c #54ADD3",
"*. c #55ADD3",
"=. c #51ACD5",
"-. c #52ACD5",
";. c #54ADD4",
":. c #57AFD8",
">. c #58AFD8",
",. c #4CB1D2",
"<. c #4DB3D3",
"1. c #4CB1D4",
"2. c #4DB3D4",
"3. c #53B0D6",
"4. c #53B0D7",
"5. c #54B1D6",
"6. c #54B1D7",
"7. c #58B0D4",
"8. c #58B1D4",
"9. c #5DBAD1",
"0. c #5FBBD2",
"q. c #5FBDD1",
"w. c #5AB2D9",
"e. c #59B2DA",
"r. c #5CB7DC",
"t. c #5FB8DC",
"y. c #5EB9DE",
"u. c #60BBCD",
"i. c #61BBCE",
"p. c #61BECE",
"a. c #62BECE",
"s. c #62BECF",
"d. c #7CB6CB",
"f. c #7CBBCE",
"g. c #61BDD2",
"h. c #61BBDF",
"j. c #5ECACF",
"k. c #5FCACF",
"l. c #5FCBD0",
"z. c #5DC8DE",
"x. c #5DC9DF",
"c. c #5FCBDE",
"v. c #5ECADF",
"b. c #5FCADF",
"n. c #5FCBDF",
"m. c #60CBCF",
"M. c #61C3D7",
"N. c #62C4D7",
"B. c #64C6D7",
"V. c #60CCD0",
"C. c #66CFD5",
"Z. c #64C7D8",
"A. c #66C8D8",
"S. c #67C9D8",
"D. c #60CCDF",
"F. c #61CDDF",
"G. c #64CCDC",
"H. c #64CDDD",
"J. c #66CDDF",
"K. c #65CFDE",
"L. c #67CEDF",
"P. c #69CDDE",
"I. c #6BCFDE",
"U. c #6BCFDF",
"Y. c #65D0D5",
"T. c #66D0D5",
"R. c #65D2D7",
"E. c #66D2D7",
"W. c #67D3D7",
"Q. c #66D3D8",
"!. c #67D5DB",
"~. c #66D0DF",
"^. c #68D2D8",
"/. c #68D2D9",
"(. c #68D4D8",
"). c #68D4DA",
"_. c #6CD1DF",
"`. c #6ED0DF",
"'. c #6AD7DC",
"]. c #69D9DE",
"[. c #6AD9DE",
"{. c #6ADADE",
"}. c #60CDE0",
"|. c #61CEE0",
" X c #62CEE0",
".X c #66CFE3",
"XX c #63D0E0",
"oX c #63D0E1",
"OX c #63D1E1",
"+X c #66D0E3",
"@X c #66D1E3",
"#X c #67D0E4",
"$X c #67D1E4",
"%X c #6AD1E0",
"&X c #68D1E5",
"*X c #69D2E5",
"=X c #6ADAE0",
"-X c #6BDAE0",
";X c #72D3E0",
":X c #82C5D4",
">X c #8BCAD7",
",X c #96D8E1",
"<X c #97E2E8",
"1X c #A2E2E3",
"2X c #A2E3E3",
"3X c #A3E4E5",
"4X c #A3E7E5",
"5X c #A5E4E4",
"6X c #A6E4E4",
"7X c #A5E7E6",
"8X c #A4E6E7",
"9X c #A9E5E5",
"0X c #AAE7E7",
"qX c #AEE5E4",
"wX c #AEE6E4",
"eX c #AFE6E4",
"rX c #ABEFEF",
"tX c #ADEDED",
"yX c #B2E9E7",
"uX c #B2E9E8",
"iX c #B4EDEC",
"pX c #B5EDEC",
"aX c #A0EFF0",
"sX c #A1F0F1",
"dX c #A6F4F4",
"fX c #A7F5F6",
"gX c #A8F6F7",
/* pixels */
"                                                                ",
"                                                                ",
"                                                                ",
"                                                                ",
"                                                                ",
"                                                                ",
"                                                                ",
"                        o 2 6 i i 6 , o                         ",
"                      8 v J / e.:./ G c 5                       ",
"                    & N $...x.$X.Xz...1.m $                     ",
"                  # l T  Xl.Q.).!.Q.V. XI k &                   ",
"                5 n Y H.].u.] ;.*.] u.].G.I n <                 ",
"              @ V 1. X].9.=.N.P.P.M.=.g.'.H.,.v o               ",
"              e K ..l.@.=.H.1XqXqX1X.X=.M.k...G ,               ",
"              y _ c.Y.] Z.1X4X:Xf.tX8XN.] ).x.) 8               ",
"              h e.+X).;.;XyXaX! d.gXpXP.7.'.$X:.s               ",
"              j h.*X).;._.pXfX>X,XdXyX_.8.'.*Xt.s               ",
"              a _  XY.` A.0XrX<XaX7X6XB.} ).c.) 9               ",
"              a ~ O.j.u.6._.9XeXeX6X_.3.u.V.O.~ 4               ",
"              > C 2.+X].g.=.S.;X;XG.6.g.].OX,.v o               ",
"                r G U S.].u.] *.*.` u.{.~.R B 9                 ",
"                  ; z E OXm.Y.).^.C.V.OXE z &                   ",
"                    * D 1.O. X$X.XH.O.2.S -                     ",
"                      d A ^ #.y.r.) K A 9                       ",
"                        : e t g f t e @                         ",
"                                                                ",
"                                                                ",
"                                                                ",
"                                                                ",
"                                                                ",
"                                                                ",
"                                                                "
};
