/* XPM */
static char *result[] = {
/* columns rows colors chars-per-pixel */
"32 32 109 2 ",
"   c #5A4525",
".  c #5D4A2C",
"X  c #624E2E",
"o  c #64502F",
"O  c #655130",
"+  c #6A5532",
"@  c #6E5934",
"#  c #725C36",
"$  c #745E38",
"%  c #77613A",
"&  c #7B643C",
"*  c #7F683E",
"=  c #81673E",
"-  c #81683F",
";  c #836A41",
":  c #896F44",
">  c #846E48",
",  c #8C7246",
"<  c #8E7549",
"1  c #927346",
"2  c #927649",
"3  c #94794B",
"4  c #9C7D4E",
"5  c #977D54",
"6  c #997E54",
"7  c #877262",
"8  c #8C7C6C",
"9  c #947A60",
"0  c #9E7F61",
"q  c #847670",
"w  c #8D7D76",
"e  c #8A7F7D",
"r  c #9F8152",
"t  c #A38454",
"y  c #A98755",
"u  c #AC8957",
"i  c #A28458",
"p  c #A9855B",
"a  c #AD8B5C",
"s  c #B08A56",
"d  c #B1865B",
"f  c #B38E5B",
"g  c #B5915D",
"h  c #BC945E",
"j  c #99816A",
"k  c #998777",
"l  c #92847E",
"z  c #99877D",
"x  c #A18465",
"c  c #A88B61",
"v  c #B08D62",
"b  c #B08D68",
"n  c #AF9164",
"m  c #B49364",
"M  c #BA9563",
"N  c #BD9965",
"B  c #B5946E",
"V  c #BB996A",
"C  c #A48970",
"Z  c #AA917C",
"A  c #B59777",
"S  c #BD9A71",
"D  c #B0957A",
"F  c #BC9D7C",
"G  c #C1965F",
"H  c #C09761",
"J  c #C49B64",
"K  c #CC9D65",
"L  c #C59E6A",
"P  c #CA9F6A",
"I  c #CEA067",
"U  c #C5A06F",
"Y  c #CDA26A",
"T  c #D0A167",
"R  c #D0A46E",
"E  c #C5A272",
"W  c #CCA573",
"Q  c #CEA877",
"!  c #C4A37C",
"~  c #CBA57C",
"^  c #CEAA7B",
"/  c #D1A672",
"(  c #D2A975",
")  c #D4AD7C",
"_  c #D6B07F",
"`  c #908584",
"'  c #948789",
"]  c #A08E85",
"[  c #A59286",
"{  c #AB9480",
"}  c #A3928F",
"|  c #A9958D",
" . c #B89C82",
".. c #B69E91",
"X. c #B29F9D",
"o. c #BCA28A",
"O. c #BEA493",
"+. c #B7A29F",
"@. c #BFA799",
"#. c #B29FA1",
"$. c #B4A2A3",
"%. c #C9A784",
"&. c #C3A68F",
"*. c #D3AF81",
"=. c #D7B182",
"-. c #D8B485",
";. c #D5B38A",
":. c #C0A593",
">. c None",
/* pixels */
">.>.>.>.>.. . X X . . . . X X X X . . . . . . . . . . >.>.>.>.>.",
">.>.>.>.. + & ; , , ; & , 1 1 4 3 < & # o . X o O o o . . >.>.>.",
">.>.>.X # 4 H K K K J K I Y Y Y R Y n % % - , 2 t t r : + X >.>.",
">.>.O - , t M K P M h R Y Y R / R R Y N N U Y f J I T K t # . >.",
">.X = s f h f Z $...S P / / / ( ( ( ( R / R Y y h G K T K 4 @ . ",
"X # 1 K K I M } $.$.| E ( W ( ) ) ( ( ( ( ( R M t g y h K g % . ",
". X $ G T T M w ' l Z ( ) W ( ) _ ) ( ) Q Y ( W f K J s G u * X ",
". . # y K T P b x V ) ) ) ) _ ) _ _ _ _ Q m N ( V g J s y 4 & . ",
". . O 4 K R / ( ( ) ) _ =._ =.=.=.=.=.=.W E n E ( J i f 4 * $ X ",
". O # u R / / ( ) ) _ =.=.=.=.-.=.=.=.=.) =.E m (  . .M 2 O X . ",
". $ 3 P R / ( ) ) _ =.=.=.-.=.) ^ -.-.=.=.=.^ m ( C z c 4 % X . ",
". % M R Y / Q ) _ _ =.=.-.-.;.*.^ -.-.=.-.-.) n *.E 5 v J y * . ",
">.% J R / Y L ) _ =.=.-.-.-.-.-.-.-.-.-.-.-.=.n Q E g ( R Y 1 o ",
">.# M R ( ( ) ) =.=.-.-.-.-.-.;.-.-.-.-.-.=.=.E r 5 L ( R Y 3 o ",
". @ g R ( ( ) ) =.=.=.-.-.-.) *.;.-.-.-.-.-.=.=.B > E ( / Y 2 O ",
". % J ! O.O.*.=.=.=.-.-.-.-.=.=.-.-.-.-.-.-.-.=.=.n E ( / Y ; . ",
". = V ] $.#.%._ *.=.-.-.-.-.-.-.;.;.-.-.;.-.-.=.=.U U ( Y Y *   ",
". : v q e l ! =.=.=.-.-.-.-.-.o.$.:.;.-.-.-._ _ *.U N ( U Y < X ",
". , K v x A ) _ =.=.-.-.-.-.=.k ' [ ^ -.-.=.-.=._ E n W / R r O ",
". & M R R ( ( ) =.=.-.-.-.-.-.A j F -.-.-.-.=._ _ ) V N Y Y r o ",
". o 1 I / ( ( ) _ _ =.=.-.-.-.-.;.;.-.^ _ -._ _ _ ) Q Y Y Y < . ",
". X % a Y ( ( ) ) _ =.=.=.=.-.-.-.*.-.^ _ _ _ ) ( ( ( R Y Y 2 X ",
". % r i h u c E ( ) _ =.=.=.=.=.-.-.-.*.*._ _ Q W ( R Y I I 3 o ",
". * J I J M J M V W ( _ _ =.=.=._ *._ _ _ _ ^ N U ^ ! I K I 3 o ",
". & f K T K R R / W ( ) ) _ _ _ _ _ ) ) ) E i i D +.$.! K K 2 O ",
". $ 4 f h K R V ..:.^ Q L ( ) ) ) ) ) ) W m u v j l ` B K K , X ",
". # y J J K K 0 ` #.O.W M Q ( ( ( ( ( ( v Y Y g i 5 x K I f & . ",
". O 2 K K K K d 7 w [ Y ( / ( ( W L ( W f L R h t J P M 3 $ X >.",
">.X # 3 G K K K h d g g Y Y R R R Y R R H h K T G f 4 * O . >.>.",
">.. . + 1 h G G J I K J I U J N J L J I J h f s t - @ X . >.>.>.",
">.>.. . O # $ = ; , : - : - $ # % * - - * & % * % X X . >.>.>.>.",
">.>.>.>.. . . X . . .   . . . . . . . . X X X X o   >.>.>.>.>.>."
};
